<?xml version="1.0" encoding="utf-8"?>
<!-- Generator: Adobe Illustrator 21.0.0, SVG Export Plug-In . SVG Version: 6.00 Build 0)  -->
<svg version="1.1" id="Capa_1" xmlns="http://www.w3.org/2000/svg" xmlns:xlink="http://www.w3.org/1999/xlink" x="0px" y="0px"
	 viewBox="0 0 60 60" style="enable-background:new 0 0 60 60;" xml:space="preserve">
<style type="text/css">
	.st0{fill:#009CD4;}
</style>
<g>
	<g>
		<path class="st0" d="M25,15c-3.9,0-7,3.1-7,7v14h2V22c0-2.8,2.2-5,5-5h4v5h2v-5h4c2.8,0,5,2.2,5,5v14h2V22c0-3.9-3.1-7-7-7H25z"/>
		<path class="st0" d="M29,14h2c2.8,0,5-2.2,5-5V6c0-2.8-2.2-5-5-5h-2c-2.8,0-5,2.2-5,5v3C24,11.8,26.2,14,29,14z M26,6
			c0-1.7,1.3-3,3-3h2c1.7,0,3,1.3,3,3v3c0,1.7-1.3,3-3,3h-2c-1.7,0-3-1.3-3-3V6z"/>
		<rect x="29" y="32" class="st0" width="2" height="2"/>
		<rect x="29" y="28" class="st0" width="2" height="2"/>
		<rect x="29" y="24" class="st0" width="2" height="2"/>
		<path class="st0" d="M48,54c0-1.7-1.3-3-3-3h-2v-5c0-0.6-0.4-1-1-1h-5V23h-2v22h-4v-8h-2v8h-4V23h-2v22h-5c-0.6,0-1,0.4-1,1v5h-2
			c-1.7,0-3,1.3-3,3v3H0v2h13h34h13v-2H48V54z M14,57v-3c0-0.6,0.4-1,1-1h3h15v-2H19v-4h22v5c0,0.6,0.4,1,1,1h3c0.6,0,1,0.4,1,1v3
			H14z"/>
		<path class="st0" d="M3.3,10.7l1.4-1.4L3.4,8H21V6H3.4l1.3-1.3L3.3,3.3l-3,3c-0.4,0.4-0.4,1,0,1.4L3.3,10.7z"/>
		<path class="st0" d="M3.3,31.7l1.4-1.4L3.4,29H15v-2H3.4l1.3-1.3l-1.4-1.4l-3,3c-0.4,0.4-0.4,1,0,1.4L3.3,31.7z"/>
		<path class="st0" d="M55.3,19.3l1.4,1.4l3-3c0.4-0.4,0.4-1,0-1.4l-3-3l-1.4,1.4l1.3,1.3H45v2h11.6L55.3,19.3z"/>
		<path class="st0" d="M56.7,37.3l-1.4,1.4l1.3,1.3H41v2h15.6l-1.3,1.3l1.4,1.4l3-3c0.4-0.4,0.4-1,0-1.4L56.7,37.3z"/>
		<rect x="45" y="27" class="st0" width="2" height="2"/>
		<rect x="49" y="27" class="st0" width="2" height="2"/>
		<rect x="53" y="27" class="st0" width="2" height="2"/>
		<rect x="57" y="27" class="st0" width="2" height="2"/>
		<rect x="1" y="37" class="st0" width="2" height="2"/>
		<rect x="5" y="37" class="st0" width="2" height="2"/>
		<rect x="9" y="37" class="st0" width="2" height="2"/>
		<rect x="13" y="37" class="st0" width="2" height="2"/>
		<rect x="1" y="15" class="st0" width="2" height="2"/>
		<rect x="5" y="15" class="st0" width="2" height="2"/>
		<rect x="9" y="15" class="st0" width="2" height="2"/>
		<rect x="13" y="15" class="st0" width="2" height="2"/>
	</g>
</g>
</svg>
